<svg width="48" height="50" viewBox="0 0 48 50" fill="none" xmlns="http://www.w3.org/2000/svg">
<rect y="0.605896" width="48" height="48.532" fill="#323238"/>
<path d="M36.1462 24.9458C36.1462 18.2034 30.7416 12.7389 24.0731 12.7389C17.4046 12.7389 12 18.2034 12 24.9458C12 31.0398 16.4142 36.0894 22.1867 37.0049V28.4744H19.1212V24.9458H22.1867V22.2565C22.1867 19.1976 23.9882 17.5072 26.7471 17.5072C28.0676 17.5072 29.4494 17.7456 29.4494 17.7456V20.7497H27.9261C26.4264 20.7497 25.9595 21.6914 25.9595 22.657V24.9458H29.3079L28.7726 28.4744H25.9595V37.0049C31.732 36.0894 36.1462 31.0398 36.1462 24.9458Z" fill="white"/>
</svg>
