<svg width="105" height="28" viewBox="0 0 105 28" fill="none" xmlns="http://www.w3.org/2000/svg">
<path d="M31.8782 7.5V9.54688H33.4563V10.6641H31.8782V15.9062C31.8782 16.2448 31.9485 16.5 32.0891 16.6719C32.2297 16.8385 32.4693 16.9219 32.8079 16.9219C32.9745 16.9219 33.2037 16.8906 33.4954 16.8281V18C33.1152 18.1042 32.7454 18.1562 32.386 18.1562C31.7402 18.1562 31.2532 17.9609 30.925 17.5703C30.5969 17.1797 30.4329 16.625 30.4329 15.9062V10.6641H28.8938V9.54688H30.4329V7.5H31.8782ZM36.7219 18H35.2766V9.54688H36.7219V18ZM35.1594 7.30469C35.1594 7.07031 35.2297 6.8724 35.3704 6.71094C35.5162 6.54948 35.7297 6.46875 36.011 6.46875C36.2922 6.46875 36.5058 6.54948 36.6516 6.71094C36.7974 6.8724 36.8704 7.07031 36.8704 7.30469C36.8704 7.53906 36.7974 7.73438 36.6516 7.89062C36.5058 8.04688 36.2922 8.125 36.011 8.125C35.7297 8.125 35.5162 8.04688 35.3704 7.89062C35.2297 7.73438 35.1594 7.53906 35.1594 7.30469ZM44.261 18C44.1777 17.8333 44.1099 17.5365 44.0579 17.1094C43.386 17.8073 42.5839 18.1562 41.6516 18.1562C40.8183 18.1562 40.1334 17.9219 39.5969 17.4531C39.0657 16.9792 38.8 16.3802 38.8 15.6562C38.8 14.776 39.1334 14.0938 39.8 13.6094C40.4719 13.1198 41.4146 12.875 42.6282 12.875H44.0344V12.2109C44.0344 11.7057 43.8834 11.3047 43.5813 11.0078C43.2792 10.7057 42.8339 10.5547 42.2454 10.5547C41.7297 10.5547 41.2974 10.6849 40.9485 10.9453C40.5995 11.2057 40.425 11.5208 40.425 11.8906H38.9719C38.9719 11.4688 39.1204 11.0625 39.4172 10.6719C39.7193 10.276 40.1256 9.96354 40.636 9.73438C41.1516 9.50521 41.7167 9.39062 42.3313 9.39062C43.3053 9.39062 44.0683 9.63542 44.6204 10.125C45.1724 10.6094 45.4589 11.2786 45.4797 12.1328V16.0234C45.4797 16.7995 45.5787 17.4167 45.7766 17.875V18H44.261ZM41.8625 16.8984C42.3157 16.8984 42.7454 16.7812 43.1516 16.5469C43.5579 16.3125 43.8521 16.0078 44.0344 15.6328V13.8984H42.9016C41.1308 13.8984 40.2454 14.4167 40.2454 15.4531C40.2454 15.9062 40.3964 16.2604 40.6985 16.5156C41.0006 16.7708 41.3886 16.8984 41.8625 16.8984ZM47.4016 13.7031C47.4016 12.3854 47.7063 11.3385 48.3157 10.5625C48.925 9.78125 49.7323 9.39062 50.7375 9.39062C51.7688 9.39062 52.5735 9.75521 53.1516 10.4844L53.2219 9.54688H54.5422V17.7969C54.5422 18.8906 54.2167 19.7526 53.5657 20.3828C52.9198 21.013 52.05 21.3281 50.9563 21.3281C50.3469 21.3281 49.7506 21.1979 49.1672 20.9375C48.5839 20.6771 48.1386 20.3203 47.8313 19.8672L48.5813 19C49.2011 19.7656 49.9589 20.1484 50.8547 20.1484C51.5579 20.1484 52.1047 19.9505 52.4954 19.5547C52.8912 19.1589 53.0891 18.6016 53.0891 17.8828V17.1562C52.511 17.8229 51.7219 18.1562 50.7219 18.1562C49.7323 18.1562 48.9303 17.7578 48.3157 16.9609C47.7063 16.1641 47.4016 15.0781 47.4016 13.7031ZM48.8547 13.8672C48.8547 14.8203 49.05 15.5703 49.4407 16.1172C49.8313 16.6589 50.3782 16.9297 51.0813 16.9297C51.9928 16.9297 52.662 16.5156 53.0891 15.6875V11.8281C52.6464 11.0208 51.9823 10.6172 51.0969 10.6172C50.3938 10.6172 49.8443 10.8906 49.4485 11.4375C49.0527 11.9844 48.8547 12.7943 48.8547 13.8672ZM56.3469 13.6953C56.3469 12.8672 56.5084 12.1224 56.8313 11.4609C57.1594 10.7995 57.6125 10.2891 58.1907 9.92969C58.774 9.57031 59.4381 9.39062 60.1829 9.39062C61.3339 9.39062 62.2636 9.78906 62.9719 10.5859C63.6855 11.3828 64.0422 12.4427 64.0422 13.7656V13.8672C64.0422 14.6901 63.8834 15.4297 63.5657 16.0859C63.2532 16.737 62.8027 17.2448 62.2141 17.6094C61.6308 17.974 60.9589 18.1562 60.1985 18.1562C59.0527 18.1562 58.123 17.7578 57.4094 16.9609C56.7011 16.1641 56.3469 15.1094 56.3469 13.7969V13.6953ZM57.8 13.8672C57.8 14.8047 58.0162 15.5573 58.4485 16.125C58.886 16.6927 59.4693 16.9766 60.1985 16.9766C60.9329 16.9766 61.5162 16.6901 61.9485 16.1172C62.3808 15.5391 62.5969 14.7318 62.5969 13.6953C62.5969 12.7682 62.3756 12.0182 61.9329 11.4453C61.4954 10.8672 60.912 10.5781 60.1829 10.5781C59.4693 10.5781 58.8938 10.862 58.4563 11.4297C58.0188 11.9974 57.8 12.8099 57.8 13.8672ZM71.9485 19.1797H64.7922V18H71.9485V19.1797ZM74.6438 18H73.1985V6H74.6438V18ZM82.1829 17.1641C81.6204 17.8255 80.7948 18.1562 79.7063 18.1562C78.8053 18.1562 78.1178 17.8958 77.6438 17.375C77.175 16.849 76.9381 16.0729 76.9329 15.0469V9.54688H78.3782V15.0078C78.3782 16.2891 78.899 16.9297 79.9407 16.9297C81.0448 16.9297 81.7792 16.5182 82.1438 15.6953V9.54688H83.5891V18H82.2141L82.1829 17.1641ZM89.1829 16.9766C89.6985 16.9766 90.149 16.8203 90.5344 16.5078C90.9198 16.1953 91.1334 15.8047 91.175 15.3359H92.5422C92.5162 15.8203 92.3495 16.2812 92.0422 16.7188C91.7349 17.1562 91.3235 17.5052 90.8079 17.7656C90.2974 18.026 89.7558 18.1562 89.1829 18.1562C88.0318 18.1562 87.1152 17.7734 86.4329 17.0078C85.7558 16.237 85.4172 15.1849 85.4172 13.8516V13.6094C85.4172 12.7865 85.5683 12.0547 85.8704 11.4141C86.1724 10.7734 86.6047 10.276 87.1672 9.92188C87.7349 9.56771 88.4042 9.39062 89.175 9.39062C90.123 9.39062 90.9094 9.67448 91.5344 10.2422C92.1646 10.8099 92.5006 11.5469 92.5422 12.4531H91.175C91.1334 11.9062 90.925 11.4583 90.55 11.1094C90.1803 10.7552 89.7219 10.5781 89.175 10.5781C88.4407 10.5781 87.8704 10.8438 87.4641 11.375C87.0631 11.901 86.8625 12.6641 86.8625 13.6641V13.9375C86.8625 14.9115 87.0631 15.6615 87.4641 16.1875C87.8652 16.7135 88.4381 16.9766 89.1829 16.9766ZM95.6125 10.5703C96.2532 9.78385 97.0865 9.39062 98.1125 9.39062C99.899 9.39062 100.8 10.3984 100.816 12.4141V18H99.3704V12.4062C99.3652 11.7969 99.2245 11.3464 98.9485 11.0547C98.6777 10.763 98.2532 10.6172 97.675 10.6172C97.2063 10.6172 96.7948 10.7422 96.4407 10.9922C96.0865 11.2422 95.8105 11.5703 95.6125 11.9766V18H94.1672V6H95.6125V10.5703Z" fill="#C4C4CC"/>
<g clip-path="url(#clip0_61385:196)">
<path d="M8.23427 5.56396C3.68735 5.56396 0 9.43658 0 14.2138C0 18.0347 2.35941 21.2763 5.63294 22.421C6.04471 22.5007 6.195 22.2337 6.195 22.0043C6.195 21.7986 6.18779 21.2547 6.18368 20.5332C3.89324 21.0555 3.40941 19.3734 3.40941 19.3734C3.03574 18.374 2.49529 18.108 2.49529 18.108C1.74691 17.5717 2.55088 17.5824 2.55088 17.5824C3.3775 17.6438 3.81191 18.4741 3.81191 18.4741C4.54691 19.7955 5.74 19.4143 6.20941 19.1924C6.28353 18.6335 6.49662 18.2523 6.73235 18.0358C4.90412 17.8172 2.98118 17.0752 2.98118 13.7615C2.98118 12.817 3.30235 12.0449 3.82941 11.4397C3.74397 11.221 3.46191 10.3412 3.90971 9.1512C3.90971 9.1512 4.60147 8.91858 6.17441 10.0375C6.83118 9.84581 7.53529 9.74997 8.23632 9.74673C8.93529 9.75104 9.64044 9.84581 10.2982 10.0386C11.8701 8.91966 12.5609 9.15227 12.5609 9.15227C13.0097 10.3433 12.7276 11.2221 12.6432 11.4407C13.1713 12.046 13.4894 12.8181 13.4894 13.7626C13.4894 17.0849 11.5644 17.8161 9.73 18.0304C10.0254 18.2975 10.289 18.8252 10.289 19.6318C10.289 20.7884 10.2787 21.721 10.2787 22.0043C10.2787 22.2358 10.4269 22.505 10.8449 22.42C14.1132 21.2741 16.4706 18.0337 16.4706 14.2138C16.4706 9.43658 12.7832 5.56396 8.23427 5.56396Z" fill="#C4C4CC"/>
</g>
<defs>
<clipPath id="clip0_61385:196">
<rect width="16.4706" height="17.2308" fill="white" transform="translate(0 5.38461)"/>
</clipPath>
</defs>
</svg>
