<svg width="20" height="16" viewBox="0 0 20 16" fill="none" xmlns="http://www.w3.org/2000/svg">
<g clip-path="url(#clip0_61385:198)">
<path d="M9.99875 0.166504C4.4775 0.166504 0 3.7625 0 8.1985C0 11.7465 2.865 14.7565 6.84 15.8195C7.34 15.8935 7.5225 15.6455 7.5225 15.4325C7.5225 15.2415 7.51375 14.7365 7.50875 14.0665C4.7275 14.5515 4.14 12.9895 4.14 12.9895C3.68625 12.0615 3.03 11.8145 3.03 11.8145C2.12125 11.3165 3.0975 11.3265 3.0975 11.3265C4.10125 11.3835 4.62875 12.1545 4.62875 12.1545C5.52125 13.3815 6.97 13.0275 7.54 12.8215C7.63 12.3025 7.88875 11.9485 8.175 11.7475C5.955 11.5445 3.62 10.8555 3.62 7.7785C3.62 6.9015 4.01 6.1845 4.65 5.6225C4.54625 5.4195 4.20375 4.6025 4.7475 3.4975C4.7475 3.4975 5.5875 3.2815 7.4975 4.3205C8.295 4.1425 9.15 4.0535 10.0013 4.0505C10.85 4.0545 11.7062 4.1425 12.505 4.3215C14.4137 3.2825 15.2525 3.4985 15.2525 3.4985C15.7975 4.6045 15.455 5.4205 15.3525 5.6235C15.9937 6.1855 16.38 6.9025 16.38 7.7795C16.38 10.8645 14.0425 11.5435 11.815 11.7425C12.1737 11.9905 12.4937 12.4805 12.4937 13.2295C12.4937 14.3035 12.4812 15.1695 12.4812 15.4325C12.4812 15.6475 12.6612 15.8975 13.1687 15.8185C17.1375 14.7545 20 11.7455 20 8.1985C20 3.7625 15.5225 0.166504 9.99875 0.166504Z" fill="#C4C4CC"/>
</g>
<defs>
<clipPath id="clip0_61385:198">
<rect width="20" height="16" fill="white"/>
</clipPath>
</defs>
</svg>
