<svg width="48" height="50" viewBox="0 0 48 50" fill="none" xmlns="http://www.w3.org/2000/svg">
<rect y="0.605896" width="48" height="48.532" fill="#323238"/>
<g clip-path="url(#clip0_61385:216)">
<path d="M22.724 37.0048C21.617 37.0048 20.324 36.9988 19.048 36.9249C17.1811 36.9674 15.3729 36.2637 14.016 34.9665C12.7328 33.5951 12.0367 31.7671 12.079 29.8797C12 28.4207 12 26.9455 12 25.5189C12 25.3032 12 25.0875 12 24.8718C12 24.6561 12 24.4404 12 24.2247C12 22.7981 12 21.3229 12.079 19.8649C12.037 17.9773 12.733 16.1491 14.016 14.7771C15.3729 13.4799 17.1811 12.7762 19.048 12.8186C20.328 12.7448 21.617 12.7388 22.724 12.7388H25.277C26.384 12.7388 27.677 12.7448 28.954 12.8186C30.8207 12.7759 32.6286 13.4797 33.985 14.7771C35.268 16.1491 35.964 17.9773 35.922 19.8649C36 21.3229 36 22.7981 36 24.2257C36 24.4414 36 24.6571 36 24.8728C36 25.0885 36 25.3039 36 25.5189C36 26.9455 36 28.4207 35.921 29.8807C35.9633 31.7681 35.2672 33.5961 33.984 34.9675C32.6276 36.2649 30.8197 36.9687 28.953 36.926C27.672 36.9998 26.383 37.0058 25.276 37.0058L22.724 37.0048Z" fill="white"/>
<path d="M29.6061 19.6026C29.8426 19.7624 30.1206 19.8477 30.405 19.8477L30.406 19.8487C30.7873 19.8482 31.1528 19.6946 31.4223 19.4218C31.6917 19.149 31.843 18.7793 31.843 18.3937C31.843 18.1062 31.7587 17.8251 31.6007 17.586C31.4427 17.3469 31.2181 17.1605 30.9553 17.0505C30.6926 16.9404 30.4034 16.9116 30.1245 16.9677C29.8456 17.0238 29.5893 17.1623 29.3882 17.3656C29.1871 17.569 29.0502 17.8281 28.9947 18.1101C28.9392 18.3921 28.9677 18.6845 29.0765 18.9501C29.1853 19.2158 29.3697 19.4429 29.6061 19.6026Z" fill="#323238"/>
<path fill-rule="evenodd" clip-rule="evenodd" d="M24.0003 31.0957C22.7828 31.0955 21.5927 30.7303 20.5805 30.0462C19.5683 29.3622 18.7794 28.39 18.3137 27.2527C17.8479 26.1153 17.7261 24.8639 17.9637 23.6565C18.2014 22.4492 18.7878 21.3403 19.6487 20.4699C20.5097 19.5995 21.6066 19.0068 22.8007 18.7667C23.9949 18.5267 25.2326 18.65 26.3574 19.1211C27.4822 19.5922 28.4436 20.39 29.1199 21.4136C29.7963 22.4371 30.1573 23.6405 30.1573 24.8715C30.1558 26.522 29.5066 28.1045 28.3522 29.2716C27.1979 30.4387 25.6328 31.0941 24.0003 31.0957ZM24.0003 20.8276C23.2092 20.8276 22.4358 21.0648 21.778 21.5092C21.1202 21.9536 20.6075 22.5853 20.3048 23.3243C20.002 24.0633 19.9228 24.8765 20.0771 25.661C20.2315 26.4455 20.6124 27.1662 21.1719 27.7318C21.7313 28.2974 22.444 28.6826 23.2199 28.8386C23.9958 28.9947 24.8001 28.9146 25.531 28.6085C26.2619 28.3024 26.8866 27.784 27.3262 27.1189C27.7657 26.4538 28.0003 25.6719 28.0003 24.872C28.0003 23.7994 27.5789 22.7707 26.8287 22.0122C26.0786 21.2537 25.0612 20.8276 24.0003 20.8276Z" fill="#323238"/>
</g>
<defs>
<clipPath id="clip0_61385:216">
<rect width="24" height="24.2661" fill="white" transform="translate(12 12.7388)"/>
</clipPath>
</defs>
</svg>
