<svg width="48" height="50" viewBox="0 0 48 50" fill="none" xmlns="http://www.w3.org/2000/svg">
<rect y="0.605896" width="48" height="48.532" fill="#323238"/>
<g clip-path="url(#clip0_61385:205)">
<path d="M36.6849 17.6381C35.7603 18.033 34.7804 18.2934 33.7769 18.411C34.8352 17.7988 35.627 16.8356 36.0048 15.701C35.0115 16.2743 33.9234 16.6778 32.7882 16.8938C32.0948 16.1744 31.1931 15.6737 30.2007 15.457C29.2084 15.2403 28.1715 15.3177 27.2254 15.6791C26.2792 16.0404 25.4677 16.669 24.8968 17.4827C24.3259 18.2965 24.022 19.2576 24.0248 20.2408C24.0229 20.617 24.0668 20.9921 24.1556 21.3584C22.1396 21.2619 20.1674 20.7555 18.3677 19.8723C16.5679 18.9891 14.9812 17.749 13.7111 16.233C13.0631 17.3123 12.8653 18.5897 13.1579 19.8051C13.4505 21.0204 14.2116 22.0823 15.2861 22.7743C14.4786 22.755 13.6882 22.5449 12.9841 22.1624V22.2232C12.9836 23.3549 13.3885 24.4519 14.1302 25.3277C14.8718 26.2036 15.9043 26.8043 17.0523 27.0278C16.6174 27.1418 16.1687 27.1995 15.7181 27.1995C15.3985 27.2001 15.0797 27.1698 14.7664 27.1089C15.09 28.0822 15.7204 28.9334 16.5694 29.5434C17.4184 30.1534 18.4434 30.4916 19.5011 30.5107C17.7065 31.874 15.489 32.6131 13.2063 32.6089C12.8024 32.6084 12.3989 32.5849 11.9979 32.5385C14.3045 33.989 16.9986 34.7583 19.7505 34.7523C21.6488 34.7652 23.5308 34.4132 25.2871 33.717C27.0434 33.0207 28.639 31.9941 29.9811 30.6966C31.3232 29.3992 32.385 27.8569 33.1049 26.1594C33.8248 24.4619 34.1883 22.643 34.1743 20.8085C34.1743 20.5962 34.1743 20.3839 34.1583 20.1764C35.1498 19.482 36.0053 18.6225 36.6849 17.6381V17.6381Z" fill="white"/>
</g>
<defs>
<clipPath id="clip0_61385:205">
<rect width="24.6857" height="19.4127" fill="white" transform="translate(12 15.3386)"/>
</clipPath>
</defs>
</svg>
