<svg width="48" height="50" viewBox="0 0 48 50" fill="none" xmlns="http://www.w3.org/2000/svg">
<rect y="0.605896" width="48" height="48.532" fill="#323238"/>
<g clip-path="url(#clip0_61385:212)">
<path d="M36.5252 19.6252C36.5698 18.5855 36.219 17.5697 35.5499 16.8007C34.8809 16.0317 33.9481 15.5724 32.9564 15.5235C30.2851 15.3922 27.5608 15.3386 24.7784 15.3386H23.9108C21.1337 15.3386 18.4042 15.3895 15.7328 15.5235C14.7408 15.5757 13.809 16.0376 13.141 16.8081C12.473 17.5787 12.1233 18.5953 12.1684 19.6354C12.0485 21.4386 11.9947 23.2344 12 25.0348C12.0053 26.8352 12.0485 28.6338 12.164 30.4388C12.117 31.4806 12.4655 32.4994 13.1334 33.2723C13.8013 34.0452 14.734 34.5092 15.7275 34.5628C18.5338 34.6996 21.4132 34.7597 24.3402 34.755C27.2719 34.7649 30.1428 34.7008 32.9529 34.5628C33.9464 34.5101 34.8796 34.0471 35.5483 33.2749C36.2169 32.5027 36.5666 31.4843 36.5208 30.4425C36.6363 28.6375 36.6892 26.838 36.6848 25.0339C36.6942 23.231 36.641 21.4281 36.5252 19.6252ZM21.9783 29.9934V20.0606L28.9705 25.0246L21.9783 29.9934Z" fill="white"/>
</g>
<defs>
<clipPath id="clip0_61385:212">
<rect width="24.6857" height="19.4127" fill="white" transform="translate(12 15.3386)"/>
</clipPath>
</defs>
</svg>
